<svg t="1729505183245" class="icon" viewBox="0 0 1024 1024" version="1.1" xmlns="http://www.w3.org/2000/svg" p-id="1602" width="48" height="48"><path d="M372.7 729.497c157.3 0 284.8-89.9 284.8-228.4S530 227.797 372.7 227.797 87.9 362.497 87.9 501.097s127.5 228.4 284.8 228.4z" fill="#844268" p-id="1603"></path><path d="M497.5 344.697c0 23.9 178.7 143.5 6.1 252.4-115.1 72.6-243.7 76.5-385.9 11.7 176.6 153.5 338.2 161.1 484.8 22.8 84.8-80 70.9-196.3-41.9-348.9-42 25.5-63.1 46.1-63.1 62z" fill="#652C61" p-id="1604"></path><path d="M372.7 739.5c-80.1 0-153.7-22.8-207.5-64.3-27.5-21.2-48.9-46.6-63.8-75.4-15.6-30.2-23.5-63.4-23.5-98.7 0-70 31.5-141.4 86.4-195.7 27.4-27.1 58.8-48.5 93.6-63.5 36.7-16 75.4-24 114.8-24 39.5 0 78.1 8.1 114.8 24 34.7 15.1 66.2 36.5 93.6 63.5 54.9 54.3 86.4 125.7 86.4 195.7 0 35.3-7.9 68.5-23.5 98.7-14.9 28.8-36.3 54.1-63.8 75.4-53.7 41.4-127.4 64.3-207.5 64.3z m0-501.7c-36.7 0-72.7 7.5-106.9 22.4-32.5 14.1-61.9 34.1-87.5 59.4-51.1 50.6-80.4 116.8-80.4 181.5 0 32.1 7.2 62.2 21.3 89.6 13.5 26.2 33.1 49.3 58.3 68.7 50.3 38.8 119.6 60.2 195.3 60.2 75.7 0 145-21.4 195.3-60.2 25.1-19.4 44.7-42.5 58.3-68.7 14.1-27.3 21.3-57.5 21.3-89.6 0-64.7-29.3-130.9-80.4-181.5-25.6-25.3-55-45.3-87.5-59.4-34.4-14.9-70.4-22.4-107.1-22.4z" fill="#333333" p-id="1605"></path><path d="M348.9 244.6c-15.1-16-52.5-20.2-92.3-8.8-47.4 13.6-80.1 44.2-73.2 68.4 6.9 24.2 51 32.8 98.3 19.2 39.8-11.4 69.2-34.8 73.6-56.3h40.8c4.2 19.2 32.5 40.6 70.5 51.5 44.9 12.9 86.2 6.1 92.3-15.1 6.1-21.2-25.4-48.8-70.3-61.7-37.9-10.9-73.2-7.8-87 6.2v-65.6c0-5.2-4.2-9.5-9.5-9.5h-33.9c-5.2 0-9.5 4.2-9.5 9.5v62.2h0.2z" fill="#A4D13C" p-id="1606"></path><path d="M238.1 350.4c-9.7 0-19-0.9-27.5-2.9-24.9-5.6-41.5-19-46.9-37.7-5.4-18.7 1.7-38.9 19.8-56.8 16.2-16 40.2-29.1 67.5-37 27.9-8 55.2-9.4 77.4-4.2v-29.4c0-16.5 13.5-30 30-30h33.9c16.5 0 30 13.5 30 30v34.3c20.7-3.9 46.2-2.1 72.1 5.3 26.1 7.5 49.1 19.6 64.6 34.2 17.7 16.6 24.8 35.4 19.7 52.9-5 17.5-20.9 29.7-44.8 34.4-20.9 4.1-46.8 2.3-72.9-5.2-35.9-10.3-65.1-29.4-78.2-50.7h-13.5c-13.2 23.7-43.8 44.6-81.8 55.5-16.9 4.9-33.7 7.3-49.4 7.3z m62.1-121.6c-13.7 0-28.7 2.2-43.7 6.5-47.6 13.6-80.6 44.6-73.6 69s51.4 33.2 99 19.6c35-10 63.3-29.7 71.9-50.2l2.6-6.1h38.7l2.7 5.8c8.5 18.2 35.5 36.2 68.7 45.7 23.1 6.6 45.7 8.3 63.5 4.8 9.3-1.8 25.6-6.9 29.4-20.3s-7.2-26.3-14.2-32.8c-13.3-12.4-33.3-22.9-56.4-29.6-27.5-7.9-54.9-8.7-73.2-2.2l-13.4 4.8v-61.5c0-5.5-4.5-10-10-10h-33.9c-5.5 0-10 4.5-10 10v57.9l-13.8-5.6c-9.4-3.8-21.3-5.8-34.3-5.8z" fill="#333333" p-id="1607"></path><path d="M370.388 412.47c38.7 0 70-24.7 70-68.9s-35-91.4-70-91.4-70 47.1-70 91.4 31.4 68.9 70 68.9z" fill="#BEE24F" p-id="1608"></path><path d="M370.388 432.97c-53.3 0-90.5-36.8-90.5-89.5 0-26.3 9.8-53.9 26.9-75.9 17.9-22.9 41-36.1 63.6-36.1s45.7 13.1 63.6 36.1c17.1 22 26.9 49.6 26.9 75.9 0.1 52.7-37.2 89.5-90.5 89.5z m0-181.4c-34.9 0-70.5 46.4-70.5 91.9 0 41.5 28.3 69.5 70.5 69.5s70.5-27.9 70.5-69.5c0.1-45.5-35.5-91.9-70.5-91.9z" fill="#333333" p-id="1609"></path><path d="M658.353 771.42c147.9 0 267.8-98.8 267.8-220.8s-535.5-121.9-535.5 0 119.8 220.8 267.7 220.8z" fill="#84427E" p-id="1610"></path><path d="M658.353 791.92c-76.6 0-148.7-24.8-203-69.9-55-45.6-85.3-106.5-85.3-171.4 0-20.2 9.3-38.2 27.5-53.5 16.3-13.7 40.1-25.4 70.7-34.7 50.4-15.3 117.9-23.7 190-23.7s139.6 8.4 190.1 23.7c30.6 9.3 54.4 21 70.7 34.7 18.3 15.4 27.5 33.4 27.5 53.5 0 65-30.3 125.8-85.3 171.4-54.2 45.1-126.3 69.9-202.9 69.9z m0-333.3c-70.2 0-135.6 8.1-184.2 22.9-38.3 11.6-84 33.1-84 69.1 0 58.9 27.7 114.3 78 156 50.8 42.1 118.3 65.3 190.2 65.3s139.5-23.2 190.2-65.3c50.3-41.7 78-97.1 78-156 0-19.9-14.6-48-84-69.1-48.6-14.7-114-22.9-184.2-22.9z" fill="#333333" p-id="1611"></path><path d="M390.588 532.17a262.7 87.6 0 1 0 525.4 0 262.7 87.6 0 1 0-525.4 0Z" fill="#E6AB8B" p-id="1612"></path><path d="M653.288 629.77c-71.2 0-138.3-9.3-188.9-26.2-25.2-8.4-45.2-18.3-59.3-29.5-16.2-12.8-24.5-26.9-24.5-42s8.2-29.2 24.5-42c14.1-11.1 34.1-21.1 59.3-29.5 50.6-16.7 117.7-26 188.9-26s138.3 9.3 188.9 26.2c25.2 8.4 45.2 18.3 59.3 29.5 16.2 12.8 24.5 26.9 24.5 42s-8.2 29.2-24.5 42c-14.1 11.1-34.1 21.1-59.3 29.5-50.6 16.7-117.7 26-188.9 26z m0-175.2c-148.9 0-252.7 40.9-252.7 77.6 0 36.7 103.8 77.6 252.7 77.6s252.7-40.9 252.7-77.6c0-36.7-103.8-77.6-252.7-77.6z" fill="#333333" p-id="1613"></path><path d="M582.146 382.479c-0.3-0.2-0.6-0.3-0.9-0.5-32.4-18.7-79.7 2.6-105.7 47.6-21.2 36.6-21.6 77.7-3.5 101.8 25.5 70.1 366.8 68.6 378.6-4.5 15.6-26.6 16.1-62.5-1.7-93.3-22.5-39-66.8-56.7-104.3-44-21.5-20.8-51.8-33.7-85.3-33.7-29.5 0-56.5 10-77.2 26.6z" fill="#FFFFF4" p-id="1614"></path><path d="M661.046 592.679c-34.9 0-69.6-2.6-99.3-7.7-38.7-6.6-86.8-20.5-98.5-48.8-20.2-28.1-18.7-72.7 3.7-111.6 13.6-23.6 33.1-41.9 55-51.8 20.9-9.4 41.7-10.1 59.3-2.1 22.4-16 49.9-24.8 78.2-24.8 33 0 64 11.5 87.8 32.4 41.3-10.9 86.9 9.5 110.4 50.2 18.7 32.5 19.7 71.3 2.5 101.8-3.7 16.7-19.5 30.4-47 40.9-23.2 8.8-54.8 15.3-91.3 18.7-19.6 1.9-40.2 2.8-60.8 2.8z m-105.9-207.6c-7.9 0-16.4 1.9-25 5.8-18.1 8.1-34.4 23.6-45.9 43.6-18.5 32.1-20.2 69.4-4.2 90.8l0.9 1.2 0.5 1.4c11.7 32.1 127.6 52.6 238.5 42.2 34.8-3.3 64.6-9.3 86.1-17.5 20.8-7.9 33.2-17.6 34.7-27.4l0.3-1.8 0.9-1.6c14.4-24.5 13.8-56.4-1.7-83.2-19.8-34.4-58.7-51-92.5-39.5l-5.8 2-4.4-4.2c-20.7-19.9-48.5-30.8-78.3-30.8-26.1 0-51.3 8.7-71 24.4l-5.4 4.4-6-3.6c-0.2-0.1-0.5-0.3-0.7-0.4-6.2-3.9-13.3-5.8-21-5.8z" fill="#333333" p-id="1615"></path><path d="M566.546 381.579c4.5-3.9 12-4 16.7-0.2s4.8 10.1 0.3 14c-23 19.8-40.4 44.4-52.4 73.8-11.8 29-13.5 57.9-5.1 86.9 1.5 5.3-2.4 10.7-8.7 11.9-6.4 1.3-12.7-2-14.3-7.3-9.4-32.7-7.5-65.4 5.7-97.9 13.1-32.1 32.4-59.3 57.8-81.2zM751.546 381.579c-4.5-3.9-12-4-16.7-0.2s-4.8 10.1-0.3 14c23 19.8 40.4 44.4 52.4 73.8 11.8 29 13.5 57.9 5.1 86.9-1.5 5.3 2.4 10.7 8.7 11.9 6.4 1.3 12.7-2 14.3-7.3 9.4-32.7 7.5-65.4-5.7-97.9-13-32.1-32.3-59.3-57.8-81.2z" fill="#333333" p-id="1616"></path><path d="M192.3 360.9c9.3 2.5 14.8 12 12.3 21.3-0.3 0.9-0.6 1.9-1 2.8-7.1 15.4-12.7 30.8-16.7 46-3.9 14.4-6.4 28.8-7.6 43-0.8 9.3-9 16.3-18.3 15.5-1-0.1-2-0.3-3-0.5-12.9-3.4-21.3-15.7-20-28.9 1.1-11.1 3.4-23.1 6.8-36.1 4.3-16.1 10.1-32.4 17.4-48.7 5.2-11.6 17.9-17.6 30.1-14.4zM158.6 511.4c10.9 2.9 17.4 14.2 14.5 25.1l-1.4 5.1c-2.9 10.9-14.2 17.4-25.1 14.5-10.9-2.9-17.4-14.2-14.5-25.1l1.4-5.1c2.9-11 14.2-17.5 25.1-14.5z" fill="#FFFFFF" p-id="1617"></path></svg>
